<svg xmlns="http://www.w3.org/2000/svg" viewBox="0 0 123.3 102.3">
	<g>
		<path d="M110.6 37.6L64.2 14.8a2.5 2.5 0 0 0-3.6 2.3v80.8a1.7 1.7 0 0 0 1.7 1.7h2.2a1.7 1.7 0 0 0 1.7-1.7V60.5L110.6 40a1.3 1.3 0 0 0 0-2.4z" transform="translate(-2.4 -12.9)"></path>
		<path d="M95.7 91c-1.1-.3-1.9.6-.8 1.1 5.7 1.7 9.1 3.9 9.1 6.3 0 5.4-18.8 9.7-40.5 9.9S23 103.7 23 98.4c0-2.4 3.4-4.5 9.1-6.3 1-.5.2-1.4-.8-1.1-8.9 2.4-14.4 5.7-14.4 9.4 0 7 21.7 12.8 46.6 13h.3c25-.2 46.6-6 46.6-13-.3-3.7-5.8-7-14.7-9.4z" transform="translate(-2.4 -12.9)"></path>
	</g>
</svg>