<svg xmlns="http://www.w3.org/2000/svg" viewBox="0 0 123.3 102.3">
	<g>
		<path d="M84.14 91.33c3-4.88 6.11-9.63 9.27-14.32-.95-3-1.91-6.08-2.94-9.07-.77-2.24-1.58-4.46-2.47-6.62a17.36 17.36 0 0 0-1.06-2.12c-.09-.16-.19-.29-.29-.44a15.66 15.66 0 0 0-1-1.44l-.28-.32a15.27 15.27 0 0 0-1.26-1.33l-.17-.16c-5.84-5.3-12.65-5.43-19.94-5.79-7.29.37-14.1.5-19.94 5.78l-.17.16A15.27 15.27 0 0 0 42.63 57l-.28.33a15.66 15.66 0 0 0-1 1.44c-.09.15-.2.29-.29.44A17.36 17.36 0 0 0 40 61.32c-.89 2.16-1.69 4.38-2.47 6.62-1 3-2 6-2.94 9.07 3.16 4.69 6.27 9.45 9.27 14.32-.52 2-.86 4.27-1.29 6.41 3.79.79 8.07 1 11.57 2.13-.09 1.33 0 6.55.1 7.64 1.48.52 9.75 6 9.75 6s8.28-5.46 9.75-6c.13-1.09.19-6.31.1-7.64 3.5-1.11 7.78-1.35 11.57-2.13-.41-2.14-.75-4.38-1.27-6.41zM59.22 84q-.61.91-1.14 1.86a1 1 0 0 1-.29.23c-3.22-.51-5.8.71-8.14 0-1.12-.34-4.58-4.24-5.36-5.46-1.32-2.09-1.74-4.88-2.62-6.95a1.11 1.11 0 0 0 0-.81c-.13-.29-.25-.65-.39-1a22.58 22.58 0 0 1 4.11.92c2 .81 3.74 3.29 5.57 5 2 1.9 4.11 3.36 5.57 5 1.06.14 2 .37 3 .59zM64 100.72a29 29 0 0 0-4-3.37c.89-3.35 3-5.44 4-8.75 1 3.31 3.11 5.4 4 8.76a29 29 0 0 0-4 3.36zM78.35 86.1c-2.34.71-4.92-.51-8.14 0a1 1 0 0 1-.29-.23q-.53-1-1.14-1.86l-.31-.64c1-.22 2-.44 3-.59 1.46-1.63 3.53-3.1 5.57-5 1.83-1.69 3.59-4.17 5.57-5a22.58 22.58 0 0 1 4.11-.92c-.15.35-.27.71-.39 1a1.11 1.11 0 0 0 0 .81c-.88 2.07-1.3 4.86-2.62 6.95-.77 1.24-4.24 5.15-5.36 5.48z" transform="translate(-2.38 -12.86)"></path>
		<path d="M89.89 22.65c-2.62 1.69-6 4.13-7.17 6.11a7.83 7.83 0 0 0-2.25-2.91.94.94 0 0 0-1.51.83v.33A4.69 4.69 0 0 1 77.91 30c-2.26 2.84-4.06 3.07-5.68 2.8l-.06.09v-.1a5.77 5.77 0 0 1-3.6-9.12 1.54 1.54 0 0 0 .05-1.75c-1.12-1.73-2.93-5.1-3.91-7a.78.78 0 0 0-1.38 0c-1 1.82-2.77 5.09-3.89 6.79a1.54 1.54 0 0 0 0 1.76 5.77 5.77 0 0 1-3.61 9.11v.1l-.06-.09c-1.63.27-3.42 0-5.7-2.8A4.66 4.66 0 0 1 49 26.86v-.36a.94.94 0 0 0-1.51-.83 7.83 7.83 0 0 0-2.25 2.91c-1.19-2-4.55-4.41-7.17-6.11a.94.94 0 0 0-1.32 1.27 57.41 57.41 0 0 1 6.91 16.46 3.39 3.39 0 0 0 1.33 2v2.7h.06a2.88 2.88 0 0 0-1.53 2.2 2.67 2.67 0 0 0 1.28 2c5.81-3.46 12-3.77 18.11-4.06h2.17c6 .3 12.26.6 18 4a2.62 2.62 0 0 0 1.22-2 2.88 2.88 0 0 0-1.53-2.2h.06v-2.6a3.4 3.4 0 0 0 1.47-2.11 57.52 57.52 0 0 1 6.86-16.3.94.94 0 0 0-1.27-1.18z" transform="translate(-2.38 -12.86)"></path>
		<path d="M114.35 89.62c2.42-4 4.93-7.89 7.48-11.74-.76-2.49-1.54-5-2.37-7.43-.62-1.84-1.27-3.66-2-5.43a14.31 14.31 0 0 0-.85-1.74c-.07-.13-.16-.24-.23-.36a12.87 12.87 0 0 0-.81-1.18l-.23-.27a12.43 12.43 0 0 0-1-1.09l-.14-.13c-4.71-4.33-12.07-4.44-18-4.74l-1.68-.09c-1.28.29-2.55.64-3.8 1 .08.12.16.24.24.38a22 22 0 0 1 1.34 2.7c.81 2 1.61 4.12 2.53 6.78v.09c1.08 3.14 2.07 6.27 3 9.2l.67 2.15-1.2 1.91c-3.16 4.7-5.79 8.73-8.16 12.54.19.92.36 1.85.53 2.76.12.64.24 1.29.36 1.92l.89 4.55s-1 1.3-1 1.54c1.1.59 8 4.86 8 4.86s6.84-4.47 8-4.9c.1-.89.16-5.17.08-6.26 2.82-.91 6.27-1.1 9.33-1.75-.33-1.77-.56-3.6-.98-5.27zm-16.17 7.7c-1.5-.61-2.34-2-3.67-2.76.77-2.63 2.23-4.47 3.18-6.9.06-.22.21-.32.49-.28.77 2.72 2.44 4.43 3.19 7.18a22.9 22.9 0 0 0-3.19 2.76zm11.5-12c-1.89.59-4-.42-6.57 0a.79.79 0 0 1-.24-.19q-.43-.78-.92-1.53l-.25-.53c.8-.18 1.59-.36 2.44-.48 1.18-1.34 2.85-2.54 4.49-4.09 1.47-1.39 2.9-3.42 4.49-4.09a18 18 0 0 1 3.32-.75c-.12.29-.21.58-.32.82a.92.92 0 0 0 0 .66c-.71 1.7-1 4-2.11 5.7-.63 1.02-3.42 4.22-4.32 4.5zm-80.24-7.56l.67-2.15c.91-2.92 1.9-6.06 3-9.2v-.09c.92-2.66 1.72-4.82 2.53-6.79A22 22 0 0 1 37 56.84c.08-.13.16-.25.24-.37-1.25-.4-2.52-.75-3.8-1l-1.68.09c-5.88.3-13.25.41-18 4.74l-.14.13a12.42 12.42 0 0 0-1 1.09l-.23.27a12.85 12.85 0 0 0-.81 1.18c-.08.12-.16.24-.23.36a14.33 14.33 0 0 0-.81 1.67c-.72 1.77-1.37 3.59-2 5.43-.83 2.45-1.61 4.94-2.37 7.43 2.55 3.85 5.06 7.74 7.48 11.74-.42 1.66-.7 3.5-1 5.26 3.05.65 6.51.84 9.33 1.75-.07 1.09 0 5.37.08 6.26 1.19.43 8 4.9 8 4.9s6.93-4.27 8-4.86c0-.25-1-1.54-1-1.54l.94-4.53c.12-.63.24-1.28.36-1.92.17-.91.34-1.84.53-2.76-2.38-3.81-5-7.84-8.16-12.54zM26 83.62q-.49.74-.92 1.53a.79.79 0 0 1-.24.19c-2.59-.42-4.67.59-6.57 0-.9-.28-3.7-3.48-4.32-4.48-1.06-1.71-1.4-4-2.11-5.7a.92.92 0 0 0 0-.66c-.1-.24-.2-.54-.32-.82a18 18 0 0 1 3.32.75c1.59.67 3 2.7 4.49 4.09 1.64 1.55 3.31 2.76 4.49 4.09.85.12 1.65.3 2.44.48zm3.78 13.7a22.9 22.9 0 0 0-3.19-2.76c.75-2.75 2.42-4.46 3.19-7.18.29 0 .43.06.49.28.95 2.43 2.41 4.27 3.18 6.9-1.29.8-2.13 2.15-3.63 2.76z" transform="translate(-2.38 -12.86)"></path>
	</g>
</svg>