<svg xmlns="http://www.w3.org/2000/svg" viewBox="0 0 123.3 102.3">
	<g>
		<path d="M73.5 86.2c.1-.5 10.1-.6 10.9-2.3s-1.5-4.9-1.5-5.8S93 63.3 93 62.4 88.1 51.5 85.3 47 74 38.8 64.9 38.3h-1.7c-9.1.4-17.8 4.4-20.4 8.7S35 61.4 35 62.4s10.1 14.8 10.1 15.7-2.3 4-1.5 5.8 10.8 1.8 10.9 2.3-.3 6.6.3 7.5 8.8 5.9 9.2 5.9 8.5-5 9.2-5.9.2-7 .3-7.5zm-15-14.3c-.6.1-1.1 1.1-1.5 1.3a5.9 5.9 0 0 1-3.4-.1 5.4 5.4 0 0 0-3.1 0c-.8.2-4.7-4.9-5.3-6.3s-2.2-6.5-2-6.8 3.1.3 3.7.6a112.3 112.3 0 0 1 8.1 7.8 7.7 7.7 0 0 0 3.9 2.3c.3.2.2 1.1-.4 1.2zM64 86.7a16.3 16.3 0 0 1-3.7-3.3 70.2 70.2 0 0 1 3.7-7.5 70.2 70.2 0 0 1 3.7 7.4 16.3 16.3 0 0 1-3.7 3.4zm7-13.5c-.4-.2-1-1.2-1.5-1.3s-.6-1-.2-1.1a7.7 7.7 0 0 0 3.9-2.3 112.3 112.3 0 0 1 8.1-7.8c.5-.2 3.5-.8 3.7-.6s-1.6 5.3-2.1 6.8-4.5 6.6-5.3 6.3a5.4 5.4 0 0 0-3.1 0 5.9 5.9 0 0 1-3.5 0z" transform="translate(-2.4 -12.9)"></path>
		<path d="M89 85a.3.3 0 0 0-.5.2c.2.7.5 1.5-.1 1.8s-10.7 1.8-10.9 2.3 0 3 0 5.3L94 111.1c1.4 1.4 12.5 2.8 13 2.4s-1.2-11.5-1.9-12.2z" transform="translate(-2.4 -12.9)"></path>
		<path d="M39.5 87.1c-.5-.3-.2-1.2-.1-1.8a.3.3 0 0 0-.4-.3l-16 16.2c-.7.7-2.5 11.7-1.9 12.2s11.6-1 13-2.4l16.2-16.3c0-2.3.2-4.8 0-5.3s-9.4-1.5-10.8-2.3z" transform="translate(-2.4 -12.9)"></path>
		<path d="M120.2 21.7l-1.8-5.1a1.6 1.6 0 0 0-1.2-1.1l-5.3-1a1.6 1.6 0 0 0-1.6.5l-3.5 4.1a1.6 1.6 0 0 0-.3 1.6l.3.8a.3.3 0 0 1-.1.3h-.1L92.3 36.4 79.1 23.1c-1.3-1.3-.9 1.2-.6 2.3s2.8 9.1 3.8 10.2l3.2 3.4-.5.3-.9.7a.8.8 0 0 0 .1 1.3 13.6 13.6 0 0 1 4.7 4.2 59.7 59.7 0 0 1 2.6 5.7 1.3 1.3 0 0 0 1.9.5l2.6-2 3.2 3.1c1.2 1.1 6.3 2.3 9.4 3.3s3.2-.2 2.2-1.2L98.3 42.4 113 27.8h.3l1.6.3a1.6 1.6 0 0 0 1.6-.5l3.5-4.1a1.6 1.6 0 0 0 .2-1.8z" transform="translate(-2.4 -12.9)"></path>
		<path d="M32 49.6l2.6 2a1.3 1.3 0 0 0 1.9-.5 59.7 59.7 0 0 1 2.6-5.7 13.6 13.6 0 0 1 4.7-4.2.8.8 0 0 0 .1-1.3l-.9-.7-.5-.3 3.2-3.4c.9-1.1 3.5-9.1 3.8-10.2s.7-3.6-.6-2.3L35.7 36.4 21.4 22h-.1a.3.3 0 0 1-.1-.3l.3-.8a1.6 1.6 0 0 0-.3-1.6l-3.5-4.1a1.6 1.6 0 0 0-1.6-.5l-5.3 1a1.6 1.6 0 0 0-1.2 1.1l-1.8 4.9a1.6 1.6 0 0 0 .3 1.6l3.5 4.1a1.6 1.6 0 0 0 1.6.5l1.6-.3h.2l14.7 14.8-12.4 12.5c-1 .9-.8 2.1 2.2 1.2s8.1-2.2 9.4-3.3z" transform="translate(-2.4 -12.9)"></path>
	</g>
</svg>