<svg xmlns="http://www.w3.org/2000/svg" viewBox="0 0 123.3 102.3">
	<path d="M43 38.83a14.78 14.78 0 0 0-1.22 1.29l-.27.32a15.22 15.22 0 0 0-1 1.4c-.09.15-.19.28-.28.43a16.85 16.85 0 0 0-1 2.06c-.86 2.1-1.64 4.25-2.39 6.42-1 2.9-1.93 5.84-2.85 8.79C37 64.1 40 68.7 42.93 73.43c-.5 2-.84 4.14-1.24 6.22 3.66.77 7.81 1 11.19 2.07-.09 1.29 0 6.35.1 7.41 1.43.51 9.44 5.8 9.44 5.8v-12.4a28.09 28.09 0 0 0-3.91-3.26c.9-3.25 3-5.28 3.91-8.49V33.07c-7.06.35-13.64.48-19.29 5.61zm6.81 21.46c2 1.84 4 3.26 5.39 4.84 1 .14 2 .36 2.93.57l-.3.62q-.59.88-1.1 1.81a1 1 0 0 1-.29.23c-3.11-.5-5.61.69-7.88 0-1.08-.33-4.43-4.11-5.18-5.29-1.27-2-1.68-4.73-2.53-6.74a1.07 1.07 0 0 0 0-.78c-.12-.28-.24-.63-.38-1a21.81 21.81 0 0 1 4 .89c1.82.81 3.53 3.21 5.29 4.85zM29 60.27l.65-2.08c.88-2.83 1.84-5.88 2.89-8.92v-.09c.89-2.58 1.67-4.67 2.45-6.58a21.34 21.34 0 0 1 1.3-2.6c.07-.13.15-.24.23-.36-1.21-.39-2.43-.73-3.67-1l-1.63.08c-5.69.29-12.81.39-17.37 4.6l-.13.12a12 12 0 0 0-1 1.06l-.22.26a12.47 12.47 0 0 0-.79 1.15c-.07.12-.15.23-.22.35a13.9 13.9 0 0 0-.82 1.69c-.67 1.68-1.3 3.45-1.91 5.23C8 55.56 7.21 58 6.47 60.39c2.46 3.73 4.89 7.51 7.23 11.39-.41 1.61-.67 3.39-1 5.1 3 .63 6.3.82 9 1.7-.07 1.06 0 5.21.08 6.07 1.15.42 7.77 4.75 7.77 4.75s6.7-4.14 7.77-4.71c0-.24-1-1.5-1-1.5l.86-4.41c.12-.62.23-1.24.35-1.86.16-.88.32-1.78.51-2.68-2.3-3.69-4.84-7.6-7.9-12.16zm-3.3 5.68q-.47.72-.89 1.48a.76.76 0 0 1-.23.19c-2.51-.41-4.52.57-6.35 0-.87-.27-3.58-3.37-4.18-4.34-1-1.66-1.36-3.88-2-5.52a.89.89 0 0 0 0-.64c-.1-.23-.19-.52-.31-.8a17.34 17.34 0 0 1 3.21.73c1.54.65 2.92 2.62 4.34 4 1.59 1.51 3.2 2.67 4.34 4 .82.11 1.59.29 2.36.47zm3.66 13.29a22.18 22.18 0 0 0-3.08-2.68c.72-2.67 2.34-4.33 3.08-7 .28 0 .42.06.48.27.92 2.36 2.33 4.14 3.08 6.69-1.32.81-2.13 2.13-3.58 2.71zm56-5.8c2.9-4.73 5.91-9.34 9-13.89-.92-2.95-1.85-5.89-2.85-8.79-.75-2.17-1.53-4.32-2.39-6.42a16.84 16.84 0 0 0-1-2.06c-.09-.15-.19-.28-.28-.43a15.19 15.19 0 0 0-1-1.4l-.27-.32a14.79 14.79 0 0 0-1.22-1.29l-.17-.15c-5.65-5.13-12.23-5.25-19.29-5.61v37.7c.92 3.21 3 5.24 3.91 8.49a28.1 28.1 0 0 0-3.91 3.26v12.4s8-5.29 9.44-5.8c.12-1.06.19-6.12.1-7.41 3.38-1.08 7.53-1.3 11.19-2.07-.42-2.08-.75-4.25-1.25-6.22zM82 78.88a44.86 44.86 0 0 0-7 1.4l-1.13.36.08 1.19c.07 1 0 4.59 0 6.33-1.58.85-4.36 2.61-6.47 4v-9a20.86 20.86 0 0 1 2.25-1.85l1.08-.82.79-.62-.27-1a19.65 19.65 0 0 0-2.12-4.66 18.12 18.12 0 0 1-1.74-3.65v-35.9c6.38.32 11.93.75 16.77 5.15l.14.13a13.36 13.36 0 0 1 1.1 1.16l.11.13.13.16a13.63 13.63 0 0 1 .88 1.26l.14.22.11.17a15.31 15.31 0 0 1 .93 1.87c.74 1.81 1.49 3.83 2.36 6.34.93 2.71 1.8 5.45 2.61 8-3.36 5-6.1 9.26-8.6 13.34l-.34.55.16.62c.34 1.32.6 2.78.86 4.2l.08.44c-1.01.2-1.97.34-2.91.48zm32.61-7.11c2.34-3.88 4.77-7.65 7.23-11.39-.74-2.42-1.49-4.83-2.3-7.21-.6-1.78-1.23-3.55-1.92-5.26a13.91 13.91 0 0 0-.82-1.69c-.07-.12-.15-.23-.22-.35a12.41 12.41 0 0 0-.79-1.15l-.22-.26a12 12 0 0 0-1-1.06l-.13-.12c-4.56-4.2-11.68-4.31-17.37-4.6l-1.63-.08c-1.24.28-2.46.62-3.67 1 .08.12.16.24.23.36a21.33 21.33 0 0 1 1.3 2.62c.78 1.91 1.56 4 2.45 6.58v.09c1 3 2 6.09 2.89 8.92l.65 2.08-1.19 1.83c-3.06 4.56-5.6 8.46-7.9 12.16.19.9.35 1.8.51 2.68.11.62.23 1.25.35 1.86l.86 4.41s-1 1.26-1 1.5c1.06.57 7.77 4.71 7.77 4.71s6.62-4.34 7.77-4.75c.1-.87.15-5 .08-6.07 2.73-.88 6.07-1.07 9-1.7-.27-1.72-.54-3.49-.95-5.11zM111.82 76a35.85 35.85 0 0 0-5.71 1.16l-1.12.36.08 1.18c.05.78 0 3.55 0 5-1.66.91-4.65 2.83-6.34 3.93-1.32-.81-3.94-2.42-5.62-3.43l.44-.55-.13-.69-.86-4.41c-.12-.6-.23-1.21-.34-1.81v-.05c-.12-.68-.25-1.39-.39-2.09 2.17-3.6 4.59-7.31 7.52-11.67l1.22-1.81.41-.6-.22-.69-.65-2.08c-.88-2.84-1.85-5.89-2.9-9v-.09C96.28 46.07 95.49 44 94.7 42c-.21-.5-.43-1-.68-1.5q.79-.22 1.56-.4H98c5.41.26 11.54.56 15.43 4.15l.11.1a10.57 10.57 0 0 1 .86.93l.09.11.1.12a10.9 10.9 0 0 1 .69 1l.12.19.08.12a12.4 12.4 0 0 1 .73 1.5c.6 1.48 1.2 3.13 1.89 5.18.74 2.18 1.42 4.37 2.06 6.45-2.68 4.07-4.87 7.53-6.87 10.84l-.33.54.15.61c.27 1.07.47 2.21.69 3.42v.1zM87.48 56.33a1.08 1.08 0 0 1 0-.78c.12-.28.24-.63.38-1a21.81 21.81 0 0 0-4 .89c-1.91.79-3.62 3.2-5.39 4.84-2 1.84-4 3.26-5.39 4.84-1 .14-2 .36-2.93.57l.3.62q.59.88 1.1 1.81a1 1 0 0 0 .28.23c3.11-.5 5.61.69 7.88 0 1.08-.33 4.43-4.11 5.18-5.29 1.34-2.06 1.75-4.73 2.59-6.73zm11 13.54c-.92 2.36-2.33 4.14-3.08 6.69 1.29.78 2.1 2.09 3.55 2.68a22.16 22.16 0 0 1 3.05-2.68c-.72-2.67-2.34-4.33-3.08-7-.24 0-.38.1-.44.31zm17.82-12.12a.89.89 0 0 1 0-.64c.1-.23.19-.52.31-.8a17.33 17.33 0 0 0-3.21.73c-1.54.65-2.92 2.62-4.34 4-1.59 1.51-3.2 2.67-4.34 4-.82.11-1.59.29-2.36.47l.24.51q.47.72.89 1.48a.77.77 0 0 0 .23.19c2.51-.41 4.52.57 6.35 0 .87-.27 3.58-3.37 4.18-4.34 1.04-1.73 1.37-3.95 2.05-5.6z" transform="translate(-2.38 -12.86)"></path>
</svg>